<svg xmlns="http://www.w3.org/2000/svg" viewBox="0 0 16 16">
    <path d="M13.89 2.98c-.653-.644-1.555-.965-2.707-.965-.319 0-.644.056-.976.167-.332.112-.64.262-.926.452a9.935 9.935 0 00-.737.533 7.19 7.19 0 00-.586.529 7.172 7.172 0 00-.586-.529 9.728 9.728 0 00-.737-.533 3.957 3.957 0 00-.926-.452 3.039 3.039 0 00-.976-.167c-1.152 0-2.054.322-2.707.965-.653.644-.98 1.536-.98 2.678 0 .348.06.706.181 1.074.121.369.258.683.413.942.154.259.329.513.524.759.195.247.338.416.428.51.09.093.161.161.212.202l4.813 4.687c.093.094.206.14.339.14a.459.459 0 00.339-.14L13.1 9.16c1.178-1.189 1.766-2.356 1.766-3.504 0-1.142-.327-2.035-.98-2.678"
          fill="#EF2B2D"/>
</svg>
