<svg class="logo-svg-letters" xmlns="http://www.w3.org/2000/svg" viewBox="0 0 131.4 21.6" width="131.4" height="21.6">
    <path class="fill" d="M0 .3h9.8c1.6 0 2.8.1 3.7.4.9.3 1.6.7 2.2 1.3.5.5.9 1.1 1.1 1.8.2.7.4 1.4.4 2.2 0 1.1-.3 2.1-.9 3.1-.6.9-1.4 1.7-2.5 2.3-1.1.6-2.3.9-3.6.9-1.1 0-2-.1-2.9-.3v-.1h.9c1.1 0 2-.2 2.9-.5.9-.4 1.6-.9 2.2-1.7.5-.8.8-1.7.8-2.9 0-1.3-.4-2.6-1.3-3.8-.8-1.2-2.1-1.8-3.7-1.8-.8 0-1.5.1-2.1.2-.1.4-.1 1.3-.2 2.8-.1 1.5-.1 2.6-.1 3.2v6.8c0 .3 0 .9.1 1.9 0 1 .1 1.9.1 2.6 0 .7.1 1.3.2 1.8l3.5.5-.2.2H0l.1-.2 3.4-.5c.1-.8.2-1.6.2-2.5.1-.9.1-2 .1-3.2 0-1.3.1-2.2.1-2.8V8.6c0-1.2 0-2.5-.1-4S3.6 2 3.5 1.1L0 .6zm4.3.5v19.7h1V.8zM10 .6h-.5v.1c1.1.1 2 .4 2.8.9.8.6 1.4 1.3 1.8 2.1.4.8.6 1.8.6 2.8 0 1.2-.2 2.1-.7 2.9-.5.8-1.1 1.3-1.8 1.6-.7.3-1.4.5-2 .6v.2h.3c.5 0 1.2-.1 2-.4.8-.3 1.6-.8 2.2-1.7.6-.9 1-2 1-3.4 0-.9-.2-1.8-.6-2.7-.4-.9-1-1.6-1.8-2.2-.8-.5-1.9-.8-3.3-.8zM28.8 21.1H18.1V21l3.5-.5c.2-1.2.3-2.6.4-4.3.1-1.7.1-3.3.1-4.9V8.9c0-3.2-.1-5.9-.4-7.9L18.2.5V.4h10.6v.1l-3.5.5c-.1.9-.2 1.7-.2 2.5 0 .7-.1 1.6-.1 2.7s-.1 2-.1 3v3.1c0 .6 0 1.5.1 2.8 0 1.3.1 2.4.2 3.3.1.9.1 1.6.2 2l3.5.5v.2zM22.4.9v19.6h1V.9zM29.1.5V.4h15.1l.4 4.4h-.2l-1-3.5c-.8-.1-1.7-.1-2.7-.1-1.8 0-3.3.1-4.4.4-.2 1.5-.3 3.3-.3 5.2 0 1.2 0 2.2.1 3 1.5.1 2.4.1 2.8.1 1.1 0 2.2-.1 3.3-.2l.6-2.4h.2v6h-.2l-.7-2.5c-.8-.1-1.7-.1-2.7-.1-1.2 0-2.4.1-3.4.2-.1 1.1-.2 2.2-.1 3.2 0 1.3 0 2.4.1 3.3 0 .9.1 1.6.2 2.3 1.2.3 2.7.5 4.5.5 1.1 0 2 0 2.7-.1l1.1-3.4h.2l-.3 4.4H29.1V21l3.4-.5c.1-.4.1-1 .2-1.8s.1-1.7.2-2.7c.1-1 .1-1.8.1-2.5V8.2 6.3c0-.8-.1-1.7-.1-2.6-.1-.9-.1-1.8-.2-2.7zm4.3.4v19.6h1V.9zM45.8.5V.4H53c.5.6 1.1 1.4 1.8 2.3.8.9 1.4 1.7 2 2.3l6.3 7.1c.8.9 1.5 1.6 2 2.1l1.8 1.8c.1-.7.1-1.3.1-1.8V6.5c0-2.2-.1-4-.3-5.5L63.3.5V.4h8.4v.1l-3.4.6c-.2 1.3-.3 3-.3 5.1v15.4h-.2c-1.4-1.8-2.9-3.5-4.3-5.1l-8.7-9.7c-1.3-1.4-2.4-2.5-3.3-3.3-.1 1.3-.2 2.5-.2 3.6v9c0 1.2.1 2.6.3 4.3l3.6.5v.1h-8.6v-.1l3.5-.5c.1-.7.2-1.6.2-2.9 0-1.3.1-2.4.1-3.4V7.2 4.8c0-.8-.1-1.6-.2-2.4L48.3 1zm4.2.4l17.1 19v-1.3L51.2.9zM75.1.3h12.3c.7 0 1.4 0 2.1-.1.6 0 1.4-.1 2.4-.2l.3 4.6H92l-1-3.3c-.9-.2-1.8-.2-2.7-.2-.8 0-1.5 0-2.2.1-.7.1-1.4.2-2.1.4-.1.9-.1 1.7-.2 2.5s-.1 1.6-.1 2.3v6.1c0 1.2 0 2.6.1 4.2.1 1.5.2 2.8.3 3.7l3.5.5v.1H76.9v-.1l3.4-.5c.3-2.1.4-4.6.4-7.6V7.7c0-1.1 0-2.1-.1-3.1 0-1-.1-2-.2-2.9-.5-.2-1.2-.3-1.9-.4-.7-.1-1.4-.1-2.1-.2-1 0-2 .1-3 .3l-1 3.4h-.2l.3-4.6c.3 0 .7.1 1.2.1h1.4zm6.2.6v19.7h.9V.9zM92.8.5V.4h15.1l.4 4.4h-.2l-1-3.5c-.8-.1-1.7-.1-2.7-.1-1.8 0-3.3.1-4.4.4-.2 1.5-.3 3.3-.3 5.2 0 1.2 0 2.2.1 3 1.5.1 2.4.1 2.8.1 1.1 0 2.2-.1 3.3-.2l.6-2.4h.2v6h-.2l-.7-2.5c-.8-.1-1.7-.1-2.7-.1-1.2 0-2.4.1-3.4.2-.1 1.1-.2 2.2-.1 3.2 0 1.3 0 2.4.1 3.3 0 .9.1 1.6.2 2.3 1.2.3 2.7.5 4.5.5 1.1 0 2 0 2.7-.1l1.1-3.4h.2l-.3 4.4H92.9V21l3.4-.5c.1-.4.1-1 .2-1.8s.1-1.7.2-2.7c.1-1 .1-1.8.1-2.5V8.2 6.3c0-.8-.1-1.7-.1-2.6-.1-.9-.1-1.8-.2-2.7zm4.3.4v19.6h1V.9zM113.5 12.6V8.2c0-1.1 0-2.4-.1-3.9-.1-1.4-.2-2.6-.3-3.4l-3.4-.5V.3h9.3c1.8 0 3.2.4 4.2 1.1 1.1.7 1.8 1.5 2.2 2.4.4.9.6 1.7.6 2.3 0 .9-.2 1.7-.6 2.4-.4.7-.9 1.3-1.6 1.7-.7.4-1.3.7-2 .7v.1c.6.3 1.2.6 1.6 1 .3.3.7.8 1.1 1.4.4.6 1 1.4 1.7 2.5.7 1 1.3 1.8 1.7 2.4.4.6.8 1.1 1.2 1.4.8.8 1.6 1.2 2.3 1.2v.1h-2.5c-1.4 0-2.5-.4-3.3-1.2-.3-.3-.6-.7-1-1.1-.3-.4-.8-1.2-1.5-2.2-.7-1-1.3-1.8-1.7-2.5-.5-.7-.8-1.1-1.1-1.4-.4-.4-.8-.7-1.1-.8-.3-.1-.8-.2-1.5-.2-.6 0-1.1 0-1.4.1-.1.5-.1 1.1-.1 1.7V16c0 1.1.1 2.6.4 4.4l3.5.5v.1h-10.5v-.1l3.3-.5c.1-1 .3-2.3.3-4 0-1.7.3-3 .3-3.8zm.4-11.7v19.6h1V.9zm2.5 5.3v2.3c0 .8 0 1.6.1 2.3.4.1.9.1 1.6.1 1.2 0 2.2-.2 2.9-.6.7-.4 1.3-1 1.6-1.6.3-.7.5-1.4.5-2.2 0-.8-.2-1.5-.5-2.2-.3-.7-.7-1.2-1.2-1.7s-1-.8-1.6-1.1c-.6-.3-1.2-.4-1.8-.4-.5 0-1 0-1.3.1-.1.5-.2 1.3-.2 2.4-.1 1-.1 1.9-.1 2.6zm1.4-5.6v.1c1.3 0 2.4.3 3.3.9.9.6 1.5 1.3 1.9 2.2.4.9.6 1.7.6 2.6 0 1.9-.8 3.3-2.5 4.1l.1.1c1-.2 1.8-.8 2.4-1.6.6-.8.9-1.8.9-2.9 0-.9-.2-1.7-.5-2.4s-.8-1.3-1.4-1.8c-.6-.5-1.2-.8-1.9-1.1-.7-.2-1.4-.4-2.2-.4h-.7zm3.7 12.6l3.1 4.5c.7 1 1.4 1.8 2 2.2.6.4 1.3.7 2 .7v-.1c-.7-.2-1.7-1.2-2.9-2.9l-2.5-3.5c-.5-.8-1-1.4-1.5-1.8-.5-.4-1-.7-1.7-.8l-.1.1c.6.3 1.1.9 1.6 1.6z"/>
</svg>
